PathFileType	4	(X/Y/Z)	Patient4_TMGait_0pt5_01_right_03.trc.trc
DataRate	CameraRate	NumFrames	NumMarkers	Units	OrigDataRate	OrigDataStartFrame	OrigNumFrames
73.684210526316	73.684210526316	5	33	mm	73.684210526316	106	       141
Frame#	Time	L.ASIS			Sacral			L.Shoulder			Chest			R.Shoulder			Neck			R.ASIS			R.Thigh.Superior			R.Thigh.Lateral			R.Thigh.Inferior			R.Patella			L.Thigh.Superior			L.Thigh.Lateral			L.Thigh.Inferior			L.Patella			L.Shank.Superior			L.Shank.Lateral			L.Shank.Inferior			R.Shank.Superior			R.Shank.Lateral			R.Shank.Inferior			R.Heel			R.Midfoot.Superior			R.Midfoot.Lateral			R.Toe			L.Heel			L.Midfoot.Lateral			L.Midfoot.Superior			L.Toe			L.Elbow			L.Wrist			R.Elbow			R.Wrist			
		X1	Y1	Z1	X2	Y2	Z2	X3	Y3	Z3	X4	Y4	Z4	X5	Y5	Z5	X6	Y6	Z6	X7	Y7	Z7	X8	Y8	Z8	X9	Y9	Z9	X10	Y10	Z10	X11	Y11	Z11	X12	Y12	Z12	X13	Y13	Z13	X14	Y14	Z14	X15	Y15	Z15	X16	Y16	Z16	X17	Y17	Z17	X18	Y18	Z18	X19	Y19	Z19	X20	Y20	Z20	X21	Y21	Z21	X22	Y22	Z22	X23	Y23	Z23	X24	Y24	Z24	X25	Y25	Z25	X26	Y26	Z26	X27	Y27	Z27	X28	Y28	Z28	X29	Y29	Z29	X30	Y30	Z30	X31	Y31	Z31	X32	Y32	Z32	X33	Y33	Z33	

106	4.635000000000	739.570561615862	967.223843783794	285.560275232061	517.034564135877	1005.858126201766	434.717015125280	688.278876811508	1439.112070483593	255.339091902788	782.556708523583	1373.723929614236	423.629460412856	684.999320451826	1446.050531664910	591.866498393179	679.173120941411	1501.795670008478	405.555461701150	741.346278837151	951.554070264306	560.431308910841	829.670915574513	785.514831743394	536.621519233467	792.181137136357	664.157836881305	611.750864636542	884.126022804393	626.924186323747	535.445483724921	911.247392876828	521.565466633676	560.236443270350	774.722617846277	748.653125507187	320.396993253178	678.540367534885	637.788240379813	262.806354168793	752.107198722603	556.543528413590	331.188414603272	746.059992305947	488.741982266328	344.777221421557	722.903138919492	418.070095108904	337.279546103416	637.746886287283	300.321507903801	285.506323225297	686.577918462703	193.866805203530	366.202423576861	855.171392984153	436.193590552303	565.516120783041	750.736002631798	364.675662144350	625.616410300892	766.731556162374	256.369130209267	576.389658694690	590.803458028171	140.457377307838	546.806971469163	768.857437552836	136.654220014913	593.030957224929	663.093599227459	104.824084446637	623.868892679705	861.065369033919	48.586578905862	625.294035250167	557.863917453447	37.322937926830	409.207112269827	635.662034636710	34.495685166585	331.277591412042	717.379767227519	95.737140941472	360.439881567681	846.954822720329	45.345189864323	339.886760473701	698.207773433935	1090.423093560601	118.599624576750	881.048571388866	903.209412911483	123.479727005428	613.283977808136	1107.295258784054	709.502402299732	647.303103331287	847.816828668282	718.749351263754	
107	4.648571428571	739.427205331433	967.099604540971	285.770719124657	516.086509050992	1005.886652479310	433.330647997913	688.968131497788	1438.978227261417	255.047844233680	781.705278792812	1373.601407086849	424.167729843116	682.762559920929	1446.022552013443	591.627692740720	678.492289316615	1501.741739343509	405.212590114152	739.573221286765	951.463545867674	560.515925049345	827.623843864199	785.653248363262	536.553459884604	790.592337550987	664.403638125514	612.111347382078	881.796927331216	627.066547324589	535.146279789188	910.517971929765	523.951832314811	560.116290287128	771.986453503295	747.626769797353	320.894678627834	674.644408527299	637.821132156277	262.224501366987	746.407650387932	555.823836481186	331.192407149044	739.464948887181	488.356300403120	344.721353580977	716.381505404274	417.935929885722	337.081976638167	631.387144027398	300.178789527426	285.190870753177	679.893779353853	193.843283752179	366.233333360878	858.745702062951	437.270759222748	566.120198789232	759.187899552552	360.187519478365	627.436535080190	781.152106114035	252.781562079444	578.287205676992	612.345075351674	126.763904181867	550.259653669675	790.541880067649	133.063291374811	595.122882567381	687.134189179772	95.204435783390	626.824438725631	887.850817630857	50.534209496118	626.491056026899	551.037368095236	37.303231245833	409.195091376611	628.812144206079	34.470226961427	331.300328829372	710.527509351168	95.728772411553	360.463334034527	840.101799120376	45.379556598366	339.937104752965	701.954153896018	1091.019501943770	117.248064139397	891.261661424367	910.480709521983	122.778112158967	602.260937821275	1109.636211278820	708.822209911976	624.891905332658	849.338061106176	722.202337867500	
108	4.662142857143	739.376561726720	966.890086866719	286.150085718474	515.224703252228	1005.794054175337	432.050712750764	689.643126369437	1438.660842976525	254.900139087727	780.906332505292	1373.340675985953	424.811844332636	680.668689990214	1445.953941480538	591.512347859655	677.885618697789	1501.548962908903	404.973152587268	737.842658059503	951.157486400887	560.766566961194	825.253436345323	785.225503216165	536.708607918806	788.326703986263	664.151844575868	612.603264720158	878.798583944456	626.562956967475	535.013568232156	908.997415845170	525.841384179797	560.020880520763	769.332197606486	746.556434920944	321.467099478924	670.838078938605	637.840309806163	261.655791374127	740.765444477912	555.102009342912	331.210544585071	732.966846233810	487.954028050534	344.623307443240	709.883716178827	417.796527130081	336.865157206662	625.039829707741	300.041988085386	284.839319038559	673.205040573230	193.812229464764	366.235430791372	861.692179333028	438.121885295650	566.779442490799	767.428391791191	355.644729834550	629.298029611855	795.468853402355	249.507538347127	580.176547332263	634.567447320869	113.574888474313	553.593814125838	812.301981787987	130.162300748667	597.179179715337	711.640371065847	86.272298662045	629.663227878507	914.481995725977	53.533664661577	627.620671246628	544.214315594020	37.291233042795	409.167647879808	621.963428366693	34.439697218222	331.321444213750	703.676157354480	95.713166405767	360.486305234272	833.251276252180	45.404750022380	339.993969616092	705.578791777645	1091.439327028853	116.112130297458	901.115270065936	917.857145124436	122.402671443959	591.476122821999	1112.160781843705	708.188112112455	603.748387354119	851.667105904486	725.257650604132	
109	4.675714285714	739.410708398537	966.600907211778	286.689094115469	514.451292736498	1005.576536009910	430.884763670813	690.306979909166	1438.167206651038	254.897254002234	780.165696712998	1372.942078479819	425.562598298150	678.735983451211	1445.846117156487	591.525180106510	677.360805893488	1501.216130669011	404.837534786548	736.158274429718	950.640004623271	561.187499670660	822.604550314015	784.276426257187	537.106885492297	785.453687039330	663.434455829393	613.231197308706	875.273245489190	625.494143468410	535.097173003485	906.803239755480	527.244956174583	559.974869612560	766.765761267363	745.447066014755	322.083923014073	667.124983708539	637.850580352742	261.106658675540	735.212409266135	554.380832993509	331.228380967331	726.607788033189	487.533338080180	344.467693589333	703.437209826847	417.652340444902	336.622100234973	618.710354704629	299.923635401230	284.455068372678	666.519812597783	193.775647042906	366.199197322033	864.048408177789	438.785505319783	567.479563709802	775.388258459192	351.187935494862	631.127527614981	809.491043509220	246.680821195821	581.974268282321	657.113187129238	101.244223064122	556.671709494217	833.803578302382	128.070590277593	599.094170737308	736.211408910073	78.267682628026	632.242701682574	940.521036675045	57.575599261707	628.579693126989	537.391629978257	37.290548699381	409.124889146693	615.117024526217	34.405504813527	331.339026538087	696.829532123933	95.690555195777	360.503579871691	826.404990034109	45.411306054870	340.054511650553	709.110946246917	1091.678176662754	115.207657262872	910.573208487680	925.266830286961	122.367636703937	581.009846573079	1114.845135720553	707.606858985394	583.991133762718	854.604738694776	727.901260221137	
110	4.689285714286	739.514812663051	966.235111702595	287.377539885056	513.766996306209	1005.229986266115	429.846463116450	690.965989436460	1437.505868728803	255.037462764553	779.487809155460	1372.406115551128	426.420702618920	676.974722593491	1445.695864797579	591.668099058465	676.920978267059	1500.743053962020	404.805702625625	734.527267509013	949.918593938090	561.780694087066	819.741882065436	782.871510548884	537.756278105555	782.084554215702	662.296783066914	613.990892559915	871.395774046598	623.957198795397	535.432429603446	904.079479995462	528.180551230692	559.999120043393	764.291894874493	744.305544793481	322.719165963391	663.510497014364	637.855613454797	260.588777492155	729.783772478620	553.663148596070	331.236661001360	720.428725875267	487.092941885301	344.249357662631	697.075015393854	417.503038460929	336.351518270347	612.408623680337	299.835800995068	284.047392910137	659.849599461188	193.735228240075	366.119585946159	865.866402051739	439.287182336611	568.200581340795	782.982599260811	346.931192881640	632.855756984286	823.003982835292	244.378632380523	583.606173945829	679.536080661648	90.059320589778	559.379261514869	854.677964600501	126.813093881104	600.776342232644	760.376966554248	71.344967962131	634.446573614627	965.512092222953	62.515615199928	629.283650468318	530.567657409374	37.304088006716	409.069197776533	608.274188711543	34.369831451163	331.351728549283	689.991816140191	95.661540408699	360.510851998837	819.564926532340	45.391174077640	340.115475719587	712.569050728688	1091.731985957331	114.552777555191	919.599788044860	932.628133493531	122.682274829593	570.953014670284	1117.649028071658	707.087865315307	565.716599898935	857.951270586632	730.127882701730	
